<?xml version="1.0" encoding="utf-8"?>
<!-- Generator: Adobe Illustrator 26.3.1, SVG Export Plug-In . SVG Version: 6.00 Build 0)  -->
<svg width="620" height="180" version="1.1" id="Layer_1" xmlns="http://www.w3.org/2000/svg" xmlns:xlink="http://www.w3.org/1999/xlink" x="0px" y="0px"
	 viewBox="0 0 620 180" style="enable-background:new 0 0 620 180;" xml:space="preserve">
<style type="text/css">
	.st0{fill:#E1B168;}
</style>
<path class="st0" d="M350,29.4c0.5,0.1,0.9,0.1,1.4,0c0.6-0.1,1.1-0.3,1.6-0.6c1.2,0.5,2.5,0.9,3.8,1.2c4.6,0.9,9.3,0.9,13.9,0.2
	c7.3-1.1,14.1-4.4,19.5-9.3c20.8-18.1,27.3-18.4,30.8-18.6c3.1,0,6.1,1.5,7.9,4.1c1.4,2,1.6,4.6,0.6,6.8c-1.2,2.6-3.8,4.4-6.6,4.5
	c-2.5,0.1-4.7-0.8-5.7-2.4c-0.5-0.9-0.7-2-0.5-3c1,1.9,3.4,2.6,5.3,1.6s2.6-3.4,1.6-5.3s-3.4-2.6-5.3-1.6c-0.1,0-0.1,0.1-0.2,0.1
	c-1.5,0.6-2.6,1.8-3.2,3.3c-0.8,2-0.7,4.3,0.4,6.1c1.4,2.3,4.4,3.7,7.8,3.5c3.7-0.2,7.1-2.4,8.6-5.8c1.4-2.9,1.1-6.4-0.8-9
	c-2.3-3.2-6-5.1-9.9-5.1c-3.8,0.2-10.8,0.5-32.2,19.2c-12.5,10.9-26.2,10-34.4,7.9c0.2-0.5,0.3-1,0.2-1.5c-0.3-1.8-2.2-2.9-4.3-2.6
	c-0.1,0-0.2,0.1-0.4,0.1L350,29.4z"/>
<path class="st0" d="M423.1,160c-3.3-0.2-6.4,1.2-7.8,3.5c-1.1,1.9-1.2,4.1-0.4,6.1c0.6,1.5,1.8,2.6,3.2,3.3
	c0.4,0.3,0.9,0.4,1.4,0.5c2.2,0.3,4.2-1.1,4.5-3.3c0.3-2.2-1.1-4.2-3.3-4.5c-1.7-0.3-3.3,0.6-4.1,2c-0.2-1,0-2.1,0.5-3
	c0.9-1.6,3.2-2.5,5.7-2.4c2.9,0.1,5.5,1.9,6.6,4.5c1.1,2.2,0.9,4.8-0.6,6.8c-1.8,2.6-4.8,4.1-7.9,4.1c-3.5-0.2-10-0.5-30.8-18.6
	c-5.5-4.9-12.3-8.1-19.5-9.3c-4.6-0.7-9.3-0.6-13.9,0.2c-1.3,0.2-2.6,0.6-3.8,1.2c-0.5-0.3-1.1-0.5-1.6-0.6c-0.5-0.1-0.9-0.1-1.4,0
	v6.3c0.1,0,0.2,0.1,0.4,0.1c2.1,0.3,4-0.8,4.3-2.6c0.1-0.5,0-1-0.2-1.5c8.2-2.1,21.9-3,34.4,7.9c21.4,18.6,28.4,19,32.2,19.2
	c3.9,0,7.6-1.9,9.9-5.1c1.8-2.6,2.1-6.1,0.8-9C430.2,162.5,426.9,160.2,423.1,160z"/>
<path class="st0" d="M426.8,20.2c7.1,1.8,12.4-0.4,18.6-2.3s11.5-2.7,17-0.8c-7.3-5.1-16.9-5.7-24.8-1.4c1.5-5,0.5-10.3-2.6-14.5
	C435,1.2,437.6,15.6,426.8,20.2z"/>
<rect x="350" y="33.7" class="st0" width="270" height="2"/>
<path class="st0" d="M445.4,162.1c-6.2-1.9-11.5-4.2-18.6-2.3c10.8,4.6,8.2,19,8.2,19c3.1-4.1,4-9.5,2.6-14.5
	c7.9,4.2,17.4,3.7,24.8-1.4C456.9,164.9,451.6,164.1,445.4,162.1z"/>
<rect x="352.4" y="143.9" class="st0" width="267.6" height="2"/>
<path class="st0" d="M196.9,20c3.3,0.2,6.4-1.2,7.8-3.5c1.1-1.9,1.2-4.1,0.4-6.1c-0.6-1.5-1.8-2.6-3.2-3.3c-0.4-0.3-0.9-0.4-1.4-0.5
	c-2.2-0.3-4.2,1.1-4.5,3.3c-0.3,2.2,1.1,4.2,3.3,4.5c1.7,0.3,3.3-0.6,4.1-2c0.2,1,0,2.1-0.6,3c-0.9,1.6-3.2,2.5-5.7,2.4
	c-2.9-0.1-5.5-1.9-6.6-4.5c-1.1-2.2-0.9-4.8,0.6-6.8c1.8-2.6,4.8-4.1,7.9-4.1c3.5,0.2,10,0.5,30.8,18.6c5.5,4.9,12.3,8.1,19.6,9.3
	c4.6,0.7,9.3,0.6,13.9-0.2c1.3-0.2,2.6-0.6,3.8-1.2c0.5,0.3,1.1,0.5,1.6,0.6c0.5,0.1,0.9,0.1,1.4,0l0,0v-6.3l0,0
	c-0.1,0-0.2-0.1-0.4-0.1c-2.1-0.3-4,0.8-4.3,2.6c-0.1,0.5,0,1,0.2,1.5c-8.2,2-21.9,3-34.4-7.9C209.8,0.6,202.7,0.2,198.9,0
	c-3.9,0-7.6,1.9-9.9,5.1c-1.8,2.6-2.1,6.1-0.8,9C189.8,17.5,193.1,19.8,196.9,20z"/>
<rect y="33.7" class="st0" width="267.8" height="2"/>
<path class="st0" d="M174.6,17.9c6.2,1.9,11.5,4.2,18.6,2.3c-10.8-4.6-8.2-19-8.2-19c-3.1,4.1-4,9.5-2.6,14.5
	c-7.9-4.2-17.4-3.7-24.8,1.4C163.1,15.1,168.4,15.9,174.6,17.9z"/>
<path class="st0" d="M270,156.9v-6.3l0,0c-0.5-0.1-0.9-0.1-1.4,0c-0.6,0.1-1.1,0.3-1.6,0.6c-1.2-0.5-2.5-0.9-3.8-1.2
	c-4.6-0.9-9.3-0.9-13.9-0.2c-7.3,1.1-14.1,4.4-19.6,9.3c-20.8,18.1-27.3,18.4-30.8,18.6c-3.1,0-6.1-1.5-7.9-4.1
	c-1.4-2-1.6-4.6-0.6-6.8c1.2-2.6,3.8-4.4,6.6-4.5c2.4-0.1,4.7,0.8,5.7,2.4c0.5,0.9,0.7,2,0.6,3c-1-1.9-3.4-2.6-5.3-1.6
	c-1.9,1-2.6,3.4-1.6,5.3c1,1.9,3.4,2.6,5.3,1.6c0.1,0,0.1-0.1,0.2-0.1c1.5-0.6,2.6-1.8,3.2-3.3c0.8-2,0.7-4.3-0.4-6.1
	c-1.4-2.3-4.4-3.7-7.8-3.5c-3.7,0.2-7.1,2.4-8.6,5.8c-1.4,2.9-1.1,6.4,0.8,9c2.3,3.2,6,5.1,9.9,5.1c3.8-0.2,10.8-0.6,32.2-19.2
	c12.5-10.9,26.2-10,34.4-7.9c-0.2,0.5-0.3,1-0.2,1.5c0.3,1.8,2.2,2.9,4.3,2.6C269.7,157,269.8,156.9,270,156.9L270,156.9z"/>
<rect y="143.9" class="st0" width="267.6" height="2"/>
<path class="st0" d="M193.2,159.8c-7.1-1.8-12.4,0.4-18.6,2.3s-11.5,2.7-17,0.8c7.3,5.1,16.9,5.7,24.8,1.4c-1.5,5-0.5,10.3,2.6,14.5
	C184.9,178.9,182.4,164.4,193.2,159.8z"/>
<path class="st0" d="M380.7,89.7c-0.1-39.2-32-70.9-71.3-70.7c-39.2,0.1-70.9,32-70.7,71.3c0.1,39.2,32,70.9,71.3,70.7
	c39.1-0.1,70.8-31.8,70.7-71C380.8,89.9,380.7,89.8,380.7,89.7z M377.8,90c0,37.4-30.4,67.9-67.7,68h-0.3c-37.4,0-67.9-30.4-68-67.8
	c-0.1-18.2,6.9-35.3,19.7-48.2c12.8-12.9,29.8-20,48-20.1l0.3,0c37.4,0,67.9,30.4,68,67.8V90z"/>
<path class="st0" d="M272.9,58.6c0.8-5,6-8.1,11.1-7.3c2,0.3,4,1.1,5.9,1.6c1.5,0.4,3,0.6,4.5,0.8c1.4,0.1,2.8-0.5,3.6-1.8
	c0.6-0.9,1.2-1.9,1.6-2.8c0.5-1,0.9-2,1.4-3.1c3.2-6.6,10.6-5.6,14-1.5c2.9,3.4,2.5,8.5-0.8,11.4c-0.1,0-0.1,0.1-0.2,0.1
	c-1.2,0.9-2.7,1.4-4.2,1.6c-0.4,0.1-0.6,0.1-0.6,0.6c0.1,1.2,0.2,2.5,0.3,3.7c0,1.7,0.3,3.4,0.7,5c0.5,2,1,4,1.5,6
	c0.2,0.9-0.5,1.6-1.6,1.5c-2.1-0.3-4.1-0.4-6.2-0.4c-4,0.2-7.8,1.2-11.4,3c-3.1,1.5-6.1,3.3-8.9,5.3c-0.1,0.1-0.2,0.1-0.3,0.2
	c-0.7,0.7-0.7,0.7-1.2-0.1c-0.3-0.5-0.5-1-0.7-1.5c-0.9-2.9-3-4.9-5.3-6.7c0,0-0.1,0-0.1-0.1c-0.7-0.8-1.9-0.9-2.8-0.3
	c-3.5,1.7-7.6,0.9-10.3-1.9c-3.2-3.4-3.1-8.7,0.2-12c0.5-0.5,1.1-0.9,1.8-1.3c1.9-1.2,4.2-1.5,6.3-0.8
	C271.9,58,272.4,58.3,272.9,58.6z M309.9,71.7c0-0.1,0-0.2-0.1-0.3c-1.5-4.2-2.1-8.8-1.7-13.3c0-0.1-0.2-0.4-0.4-0.4
	c-1.1-0.2-2-0.9-2.5-1.9c-0.2-0.5-0.3-1,0.1-1.4s0.9-0.3,1.5,0c0.6,0.3,1.3,0.4,2,0.4c1.7-0.2,3.2-1,4.3-2.3
	c0.4-0.4,0.6-0.9,0.8-1.4c0.5-2,0-4.1-1.4-5.6c-0.9-1.2-2.2-2-3.7-2.1c-2.3-0.2-4.2,1.2-5.1,3.7c-0.6,1.7-1.1,3.3-1.8,5
	c-0.9,2.5-3.2,4.3-5.9,4.6c-2.5,0.2-5-0.1-7.4-1c-1.7-0.6-3.4-1.2-5.2-1.7c-2.5-0.8-5.3,0-7,2.1c-1,1.3-1.7,2.9-1.8,4.5
	c0,0.6-0.5,1-1.1,0.9c-0.1,0-0.2,0-0.3-0.1c-0.4-0.1-0.7-0.3-1.1-0.4c-4.3-1.1-7.7,2-9,4.7c-0.3,0.7-0.3,1.5-0.1,2.2
	c0.7,3,4.4,5.3,7.6,4.8c3-0.5,5.7-2.1,7.5-4.4l0.5-0.5c0.1,0.2,0.1,0.2,0.1,0.2c-0.1,0.3-0.2,0.5-0.3,0.7c-0.9,1.3-1.9,2.5-2.9,3.8
	c3.6,1.5,6.4,4.4,7.8,8c1.1-1.7,2.6-3.1,4.4-4c5.2-3.1,11-4.9,17-5.2C306.5,71.5,308.1,71.6,309.9,71.7L309.9,71.7z M336.7,93
	c-0.1,0.1-0.1-0.1-0.2-0.1c-0.2-1.9-1.5-3-3.1-3.7c-0.7-0.3-1.3-0.6-1.9-1c-2.9-1.7-3.9-5.3-2.2-8.2c0.2-0.3,0.4-0.6,0.6-0.9
	c0.9-1.2,2.3-1.9,3.7-2c0.9-0.1,1.8,0.5,1.9,1.4c0.2,1,0.3,2,0.3,3c0,0.6,0.1,1.2,0.3,1.8c0.3,1,1.3,1.6,2.3,1.5
	c0.9,0,1.7-0.6,1.9-1.4c0.3-0.8,0.5-1.6,0.7-2.4c0-0.3,0-0.7,0-1c-1.4,1.6-2.7,1.9-4,0.8c-0.8-0.7-1.1-1.9-0.9-2.9
	c0.2-1.6,0.7-3.1,1.7-4.4c0.9-1.2,2-2.2,3.6-1.9c1.8,0.3,3.2,1.7,3.6,3.4c0.1,0.3,0.1,0.6,0.2,0.8c0.9-1.2,1.8-2.4,2.7-3.5
	c1.1-1.4,2.7-2.4,4.5-2.6c1.9-0.2,4,0.8,3,3.6c-0.2,0.5-0.4,0.9-0.6,1.3c-0.1,0.1-0.1,0.3-0.2,0.5c0.1,0,0.3,0,0.4,0
	c2.9-0.5,4.6,1.3,4,4.2c-0.3,1.7-1.2,3.2-2.6,4.3c-1,0.7-2,1.6-2.8,2.5c-0.8,1-1.5,2.1-1.9,3.3c-1.2,3.3-4.1,5.8-7.5,6.5
	c-1.2,0.4-2.5,0.2-3.6-0.3c-0.3-0.2-0.6-0.4-0.9-0.7l0.9-0.3c0.9-0.3,1.8-0.6,2.6-0.9c2.4-0.9,4.2-2.9,5.1-5.2
	c0.8-2.2,2.3-4.1,4.3-5.5c0.8-0.6,1.6-1.2,2.3-2c0.5-0.6,0.9-1.3,1.2-2c0.3-0.8,0-1.3-0.8-1.5c-0.1,0-0.3-0.1-0.4-0.1
	c-0.2,0-0.4,0-0.5,0.1c-1.3,0.3-2.5,1-3.6,1.9c-0.9,0.7-1.9,1.4-2.9,2.1c-0.1,0.1-0.1,0-0.1-0.1c0.3-0.8,0.7-1.5,1.1-2.1
	c0.9-1.3,2-2.5,2.9-3.8c0.6-0.8,1.2-1.6,1.7-2.5c0.3-0.7,0-1.2-0.8-1.1c-1.3,0.1-2.5,0.8-3.4,1.7c-1,1-1.9,2.2-2.9,3.3
	c-0.3,0.4-0.7,0.7-1.1,1.1c-0.4,0.3-0.7,0.2-0.8-0.3c-0.2-0.7-0.3-1.4-0.5-2.1c-0.3-1.1-1.2-1.9-2.3-2.1c-1-0.2-2,0.3-2.5,1.2
	c-1.1,1.3-1.6,3-1.5,4.7c0.2,1.2,0.7,1.4,1.6,0.7c0.4-0.3,0.8-0.6,1.2-1c0.5-0.5,1-0.5,1.4,0.1c0.4,0.8,0.7,1.6,0.9,2.4
	c0.5,2.3-1.7,5.2-4,5.6c-1.4,0.2-2.7-0.7-3.2-2c-0.4-1.2-0.7-2.5-1-3.8c-0.1-0.3-0.2-0.7-0.4-1c-0.5-1-1.1-1.1-1.9-0.4
	c-0.7,0.6-1.1,1.5-1.1,2.4c-0.1,0.9-0.1,1.7,0,2.6c0.1,1.9,1.3,3.5,3.1,4.1c0.7,0.3,1.4,0.6,2,1.1C337.2,90.8,337.4,92.1,336.7,93
	C336.7,92.9,336.7,93,336.7,93z M313,101c2.9-0.2,5.8,0.2,8.5,1.1c2.4,0.9,4.6,2.1,6.5,3.7c5.1,4.1,8.8,9.6,10.8,15.8
	c0.5,1,0,2.2-1,2.7c-0.2,0.1-0.3,0.1-0.5,0.2c-1.2,0.5-2.5-0.1-3-1.3c0-0.1,0-0.1-0.1-0.2c-0.8-2.3-1.8-4.5-2.8-6.6
	c-2.1-4-5.2-7.3-9-9.6c-5.8-3.5-13-3.8-19.1-0.9c-5,2.2-9.4,5.6-12.8,9.9c-1.5,1.7-2.4,3.9-2.6,6.1c0,0.5,0.1,1,0.1,1.5
	c0,0.2,0.1,0.5-0.1,0.5s-0.4-0.2-0.4-0.4c-0.9-1.7-1.1-3.6-0.4-5.4c1-2.6,2.6-4.9,4.6-6.9c2.2-2.1,4.7-4,7.4-5.6l0.4-0.2l0.7-0.4
	c2.7-1.5,5.5-2.6,8.4-3.3c0.4-0.1,0.6-0.2,0.6-0.7c-0.1-0.9,0.6-1.6,1.4-1.7c0.9-0.3,1.9,0.3,2.2,1.2
	C312.8,100.7,312.9,100.8,313,101z M302.7,91.4c2.1-3.5,5.6-6,9.7-6.7c2.2-0.3,4.5-0.3,6.7-0.2c2.8,0.1,5.5,0,8-1.2
	c0.2-0.1,0.6-0.2,0.7,0s-0.2,0.5-0.3,0.7c-1.9,1.8-4.4,3-7,3.3c-2,0.4-4.1,0.6-6.1,0.9c-1.9,0.3-3.6,1.2-5,2.4
	c-0.7,0.5-1.1,1.3-1.2,2.2c-0.1,1.6-1.5,2.8-3.1,2.7c-0.1,0-0.2,0-0.3,0c-0.4,0-0.9,0.1-1.2,0.4c-1.1,1.2-2.9,1.2-4.1,0.1
	c0,0-0.1-0.1-0.1-0.1c-1.2-1.1-2.7-0.9-4.1-0.7c-1.7,0.3-3.4,0.9-4.8,1.9c-2,1.2-4.1,2.5-6.2,3.6c-1.7,0.8-3.5,1.1-5.4,0.9
	c-0.2,0-0.6,0-0.7-0.3s0.4-0.4,0.6-0.5c2.9-0.8,5.1-2.6,7.2-4.5s4.1-3.8,6.7-4.8C295.8,90.3,299.4,90.2,302.7,91.4z M281.7,126.3
	c0.1,0,0.2,0,0.2,0.1c1.7,1.5,3.8,1.9,6,2.2c3.5,0.6,7,1.2,10.5,1.7c5.8,0.7,11.7,0.9,17.5,0.5c4.9-0.3,9.7-1.1,14.4-2.4
	c2.8-0.7,5.5-1.8,8-3.1c1.1-0.7,2.3-1,3.6-0.9c0.7-0.1,1.3,0.4,1.4,1.1c0,0.3,0,0.6-0.2,0.9c-0.3,0.6-0.6,1-1.1,1.4
	c-0.9,0.6-1.9,1.2-3,1.6c-5.6,2.3-11.6,3.8-17.7,4.3c-5.5,0.5-10.9,0.4-16.4-0.1c-5.5-0.4-11-1.4-16.3-3c-2-0.6-3.8-1.4-5.6-2.6
	c-0.6-0.4-1.4-0.9-1.4-1.6C281.5,126.4,281.6,126.4,281.7,126.3z M332.9,92.9c0,1.6,2.8,3.9,3.2,4.1c1.8,0.9,3.8,1.4,5.8,1.6
	c0.4,0,0.9,0.1,1.3,0.3c0.6,0.1,1,0.6,1,1.2c0.1,0.7-0.3,1.3-1,1.4c-0.9,0.2-1.8,0.2-2.7,0.2c-2.4-0.1-4.7-1.1-6.5-2.7
	c-1.7-1.4-2.3-3.7-1.5-5.7c0-0.1,0.1-0.2,0.2-0.4S333,92.8,332.9,92.9z M308.4,135.6c5.1,1.4,10,2.1,15.2,1c2.3-0.5,4.5-1.4,6.5-2.7
	c0.4-0.3,0.9-0.5,1.3,0s0.1,0.9-0.5,1.3c-7.4,4.4-15.2,4.4-23.1,1.7c-0.8-0.3-1.3-0.9-0.6-1.4C307.6,135.4,308,135.4,308.4,135.6z
	 M281.3,93c-0.1-1.5,0.4-2.9,1.5-4c0.1-0.1,0.1-0.1,0.2-0.2c0.4-0.3,0.9-0.8,1.4-0.3s0.3,1-0.1,1.5c-1,1.3-1.3,3.1-0.8,4.7
	c0.1,0.6,0.3,1.2,0.3,1.9c0.1,0.4,0.1,0.9-0.5,1.1s-0.8-0.2-1-0.6C281.7,95.8,281.3,94.4,281.3,93z M314.3,77.2
	c2.6,0.1,5,1.5,6.4,3.8c0.3,0.6,0.5,1.3,0.6,2c0.1,0.3,0,0.8-0.5,0.8c-0.3,0-0.6-0.2-0.8-0.4c-0.4-0.6-0.7-1.3-1.1-1.9
	c-1-1.8-2.9-2.9-4.9-3h-0.4c-0.4,0-0.6-0.3-0.7-0.6c0,0,0,0,0,0c0-0.3,0.3-0.6,0.6-0.6l0,0C313.9,77.2,314.1,77.2,314.3,77.2z
	 M294.5,85.4c-2.3-1.1-4,0.1-4.1,2.9c-1.2-0.3-1.9-1.5-1.6-2.6c0,0,0,0,0-0.1c0.4-1.7,2-2.8,3.7-2.6
	C293.7,83.2,294.6,84.2,294.5,85.4z M308.9,81.8c-0.2-1-1.1-1.7-2.1-1.6c-1.1,0-1.6,0.9-1.9,1.8c-1-1-1.1-2.5-0.1-3.5
	c0.9-1.1,2.5-1.2,3.7-0.3C309.6,79,309.8,80.7,308.9,81.8z M304.5,100.3c-0.7-0.2-1.4-0.4-2-0.8c-0.1-0.1-0.4-0.4-0.3-0.6
	s0.4-0.2,0.6-0.2c0.9,0.3,2,0.1,2.7-0.6c0.1-0.1,1.1-0.7,1.5-0.5s0.2,0.9,0,1.3C306.6,99.9,305.5,100.5,304.5,100.3z"/>
<path class="st0" d="M269.5,150.6c-2.1,0.3-3.6,2-3.3,3.8s2.2,2.9,4.3,2.6s3.6-2,3.3-3.8S271.5,150.3,269.5,150.6z"/>
<path class="st0" d="M349.5,150.6c-2.1,0.3-3.6,2-3.3,3.8s2.2,2.9,4.3,2.6s3.6-2,3.3-3.8S351.6,150.3,349.5,150.6z"/>
<path class="st0" d="M350.5,23.1c2.1,0.3,3.6,2,3.3,3.8s-2.2,2.9-4.3,2.6s-3.6-2-3.3-3.8S348.5,22.8,350.5,23.1z"/>
<path class="st0" d="M270.5,23.1c2.1,0.3,3.6,2,3.3,3.8s-2.2,2.9-4.3,2.6s-3.6-2-3.3-3.8S268.4,22.8,270.5,23.1z"/>
<path class="st0" d="M566.9,97.7c-0.5-0.6-1.3,0.3-1.5,0.6c-0.1,0-7.5,6.5-9.6,5c0,0,1-2,1.9-3.8c0.5-0.9,0.8-1.7,1.2-2.7
	c0.5-1.7,0.1-3-1.9-3.6h-0.1c-1.5-0.4-5.5,2.6-9.2,5.7l1.7-3.1c0.2-0.3-0.1-1.1-0.7-1.6s-1.2-0.7-1.4-0.3l-2.1,3.7
	c-1.9,1-4.1,1.3-6.1,0.8c0.1-1,0.1-2,0-2.9c-0.1-0.9-0.4-1.7-0.8-2.5c-0.4-1-1.2-1.8-2.1-2.3c-0.5-0.3-1.1-0.4-1.7-0.3
	c-0.8,0.1-1.2,0.8-1.4,1.8c0,1.2,0.2,2.3,0.7,3.3c0.6,1.3,1.5,2.5,2.7,3.5c-0.3,1-0.6,1.9-1.1,2.8c-0.7,1.4-1.6,2.6-2.7,3.6
	c-0.6,0.6-1.3,1-2,1.3c-0.4,0.1-0.9,0.1-1.3,0c-0.3-0.7-0.1-2.3,0.5-4.1c0.7-2.1,1.8-4,3.3-5.5c0.2-0.2,0.3-0.3,0.5-0.4
	c0.3-0.3,0.1-1-0.4-1.6s-1.2-0.9-1.5-0.7s-0.4,0.3-0.6,0.5c-0.9,0.8-1.6,1.8-2.2,2.8c-1.6,0.5-3.2,0.7-4.8,0.7
	c-0.9-0.1-0.7-1.6-1.3-2.3c-1.4-1.7-4.6-0.6-7,0.6l2.5-4c0.2-0.3-0.1-1.1-0.7-1.6s-1.2-0.8-1.4-0.4l-3.9,6.3l0,0
	c0,0.1-13.9,11.1-15.1,8.8c-0.5-1,0.4-3.2,2.5-6.7l0.2-0.2c0.1-0.1,0.2-0.3,0.2-0.5c0.8-1.4,1.7-2.9,2.8-4.6c0.1,0,0.3-0.1,0.3-0.4
	v-0.1c1.4-2.2,2.8-4.4,4.2-6.6h20.4c0.5,0,0.5-0.6,0.1-1.2c-0.3-0.6-0.9-1-1.6-1.2h-17.5c5.3-8,10.3-14.9,10.3-15
	c0.2-0.3-0.1-1-0.6-1.6s-1.2-0.8-1.4-0.5c-0.1,0.1-5.8,8.1-11.5,17h-20.4c0.4-0.6,0.8-1.3,1.2-2c1.5-2.6,2.2-5.7,1.9-8.7
	c-0.4-3.1-1.8-6-3.9-8.3c-5.4-6.2-17.8-9.2-31.4-8.6c-12.9,0.5-27.1,4-37.5,10.5c-4.7,2.8-8.6,6.9-11.1,11.8c-1,2-1.5,4.1-1.6,6.3
	c0,2.3,0.7,4.6,1.9,6.6c2.1,3,4.9,5.4,8.3,6.9c0.6,0.3,1,0,0.9-0.6c-0.2-0.7-0.7-1.3-1.4-1.6c-2.4-1-4.5-2.6-6.1-4.8
	c-0.9-1.5-1.4-3.2-1.4-5c0-2,0.5-4,1.4-5.9c2-4.4,6.1-8.5,10.8-11.5c10.3-6.5,24.4-10,37.1-10.5c12.9-0.5,24.4,1.9,28.9,7.1
	c1.5,1.7,2.5,3.9,2.7,6.2c0.2,2.8-0.4,5.6-1.8,8c-1.6,3-3.8,5.6-6.4,7.7c-7.2,6-16,9.7-25.3,10.8c3.5-5.2,6.8-10.4,9.3-14.4
	c0.4,0.5,0.7,1.1,1,1.6c0.4,0.6,1.1,1.2,1.6,1.2s0.6-0.4,0.3-1.1c-0.5-1.1-1.2-2.1-2-3.1c2.5-4,4-6.6,4-6.7c0.2-0.3-0.1-1-0.6-1.6
	s-1.2-0.8-1.4-0.5l-3.5,4.3c-0.1,0.2-0.1,0.6,0.2,1.1l-0.8,1.3c-2.9-2.3-6.3-2-9.6-0.2c-5.2,2.8-10.7,9.6-15,16.9
	c-0.7-0.3-1.3-0.6-1.9-1c-1.2-0.6-2.2-1.5-3-2.5l-0.1-0.1c-0.6-0.9-1-2-1.1-3.1c-0.2-1.4,0.1-2.8,0.8-4c0.2-0.3-0.1-1.1-0.7-1.6
	s-1.2-0.7-1.4-0.3c-0.8,1.4-1.1,3.1-0.9,4.7c0.2,1.7,0.8,3.3,1.8,4.8h0.1c1.2,1.8,2.9,3.3,4.9,4.3c0.3,0.1,0.5,0.3,0.8,0.4
	c-0.2,0.3-0.3,0.7-0.5,1c-4.6,8.2-7.6,16.5-7.2,20c0.3,2.4,1.3,3.6,3.4,3.4c4.2-0.5,12.5-11.1,20.1-22.1c0.8-0.1,1.7-0.1,2.6-0.3
	c9.8-1,19-4.8,26.6-11.1c1.3-1.1,2.5-2.3,3.6-3.6c0.1,0.1,0.3,0.1,0.5,0.1c0,0,17.5-0.7,17.4,4.5c-0.2,0.2-0.3,0.5-0.4,0.8
	c-1.3,2.2-2.5,4.4-3.6,6.3c-2.3,1.8-8.1,6.5-8.4,5.1c-0.2-1.4,0-2.8,0.5-4c0.2-0.3-0.1-1-0.5-1.5s-1.2-0.8-1.5-0.6
	c0,0-6.2,7.2-8.6,7.9c0.6-3,2.3-5.7,4.7-7.7c1.2-1,4.6-2.6,5.9-1.3c0.3,0.6,0.8,1.1,1.5,1.4c0.5,0.1,0.8-0.3,0.5-1
	c-1.2-4-6.8-3.8-9.8-1.3c-1.8,1.5-3.2,3.4-4.2,5.5c-0.4,0.8-0.7,1.7-0.8,2.6c-0.1,1,0.2,2.1,0.8,2.9c0.4,0.4,0.8,0.8,1.4,1
	c1.5,0.7,4-1.4,6.5-3.8c-0.1,3.3,2.3,4.3,5.5,2.7c1.5-0.9,3-2,4.3-3.2c-0.8,2.2-1.1,3.8-0.7,4.6c2.2,4,9.6-1.2,14.5-5.2l-2.5,4
	c-0.2,0.3,0.1,1.1,0.7,1.6s1.2,0.8,1.4,0.4c0.4-0.6,3.9-6.6,4-6.7s6.1-5.4,7.1-4.2c1.5,1.8,2,2.2,3.8,2.4c1.6,0,3.1-0.2,4.6-0.6
	c-0.2,0.5-0.4,1-0.6,1.5c-0.8,2.4-0.8,4.9,0.3,6.5l0.4,0.4c0.4,0.4,0.8,0.8,1.4,1.1c0.8,0.5,1.8,0.6,2.7,0.3
	c0.9-0.3,1.7-0.8,2.3-1.4c1.2-1.1,2.1-2.4,2.8-3.8c0.6-1.1,1-2.2,1.3-3.4c1.6,0.5,3.3,0.5,4.9-0.1l-2.6,4.6c-0.2,0.3,0.1,1,0.7,1.6
	s1.2,0.7,1.4,0.4s9.4-9,13.2-11c-0.2,0.6-0.5,1.1-0.8,1.6c-1.3,2.7-2.8,5.7,0.3,7.7c3.5,2.3,11-6.5,11-6.5
	C567.1,98.4,567.5,98.2,566.9,97.7z M429.5,121c-0.1-3.4,2.8-11.1,7.1-18.9c0.3-0.7,0.8-1.3,1.1-2c3.1,0.9,6.3,1.4,9.5,1.3
	C440.4,111.2,433.3,120.1,429.5,121z M448.9,98.9c-3.4,0.3-6.8,0.1-10.1-0.6c4.2-6.8,9.2-12.8,14-15.4c2.5-1.4,4.9-1.8,6.9-0.7
	C456.8,86.9,452.9,93,448.9,98.9z M495.5,86.2l8.5,0.3c-0.7,1.1-1.4,2.2-2,3.3C500.9,88.3,497.6,87,495.5,86.2z M536.7,97.3
	c-0.4-0.4-0.8-0.9-1-1.4c-0.3-0.7-0.5-1.4-0.4-2.1c0.1-0.6,0.3-1,0.7-1c0.2-0.1,0.3-0.1,0.5,0h-0.1c0.2,0.5,0.3,1,0.3,1.5
	C536.8,95.3,536.8,96.3,536.7,97.3z"/>
<path class="st0" d="M189.5,97.2c-0.6-0.5-0.8-0.1-1,0.2c-3.6,6.2-10,7-12.6,7.3l-0.1-0.1c4.9-2,7.4-4.6,8.3-6.7
	c0.3-0.5,0.5-1.2,0.4-1.8c0-0.9-0.4-1.8-1.1-2.4c-0.6-0.7-1.6-1-2.5-0.8c-3.3,0.7-7.4,4.4-7.4,4.4c-0.3,0.3-0.1,1,0.4,1.6L174,99
	c-3.9,4-19.6,10.8-15.3,1.5c2.4-0.3,4.8-1,7-2.1c1.6-0.8,2.9-2.1,3.8-3.8c0.3-0.6,0.6-1.2,0.7-1.9c0.1-0.9-0.2-1.8-0.8-2.5
	c-0.4-0.5-1-0.9-1.6-1c-0.8-0.1-2.6,0.7-4.6,2c-1.6,1.2-3.1,2.5-4.4,4c-1.1,1.3-2,2.7-2.6,4.3c-4.4,3.9-6.2,4.2-6.4,3.9
	c0,0-0.1-4.4-0.1-5c-0.4-4.5-4.2-2.8-8,0.1l0.1-0.2l0.2-0.1c0.1-0.1,0.1-0.2,0.1-0.3l14.6-23.6c0.2-0.3-0.1-1.1-0.7-1.6
	s-1.2-0.8-1.4-0.4l-14.8,24c-18,16.6-32.3,24.4-42.3,26c-4.2,0.7-7.7,0.3-10.2-1c-2.1-1.1-3.6-3.1-4.2-5.3c-1.4-4.3-0.8-10.2,2-16.9
	c2.1-4.8,4.7-9.4,7.9-13.5c11-14.8,21.9-21,30.3-25.3s15.9-5.9,20-4.2c0.4,0.1,0.8,0.3,1.1,0.6c0.4,0.3,0.7,0.8,0.9,1.3
	c0.5,1.8-0.3,4.2-2,6.7c-2.1,3.1-4.7,5.7-7.6,7.9c-6.7,5.3-15.7,9.5-23.5,9.8c-0.5,0-0.6,0.5-0.1,1.2s1.1,1.2,1.6,1.2
	c8.1-0.3,17.2-4.7,24-10c3-2.3,5.6-5,7.8-8.1c1.9-2.8,2.7-5.5,2-7.8c-0.5-1.5-1.4-2.9-2.7-3.8c-0.6-0.5-1.3-0.9-2.1-1.2
	c-4.6-1.9-12.7-0.2-21.2,4.2c-12.1,5.8-22.6,14.6-30.5,25.5c-3.2,4.2-6,8.8-8.1,13.7c-2.8,7-3.4,13.2-2,18c1,3.6,3.5,6.5,6.8,8.2
	c2.9,1.5,6.8,2,11.3,1.3c8.8-1.5,20.7-7.5,35.5-19.8l-0.8,1.2c-0.2,0.3,0.1,1.1,0.7,1.6s1.2,0.8,1.4,0.5
	c0.1-0.1,10.9-12.3,11.1-10.6c0.2,2.4-0.3,5.6,1.3,7.4c1.2,1.3,3.6,0.6,7.8-2.9c0.2,2.1,1.5,3.9,3.3,4.9c4.7,2.7,15.4-4.7,17.3-8.1
	c0.1-0.2,0.1-0.4,0.1-0.6c1.7-1.4,3.5-2.4,5.6-3.2c0,0.2-0.1,0.5-0.2,0.7c-0.9,1.9-3.4,4.4-8.3,6.4c-0.4,0.1-0.4,0.6-0.1,1
	c0.2,0.5,0.4,1,0.5,1.6c-1.6,0.7-9.3,4.2-11.3,8.3c-0.5,1-0.6,2.1-0.4,3.1c0.4,1.1,1.2,2,2.3,2.5c0.7,0.3,1.4,0.4,2.2,0.3
	c2.4-0.4,4.7-1.6,6.4-3.4c2.3-2.2,3.5-5.4,3.1-8.6c5.8-0.8,10.8-4.2,13.7-9.2C190.3,97.6,190.1,97.7,189.5,97.2z M165.1,93.5
	c0.8-0.6,1.7-1.2,2.7-1.6c-0.1,0.3-0.2,0.5-0.3,0.8c-0.8,1.4-2,2.7-3.4,3.5c-1,0.5-2,0.8-3.1,1.2C162.2,95.9,163.6,94.6,165.1,93.5z
	 M171.2,113.6c-1.6,1.7-3.6,2.8-5.9,3.2c-0.3,0-0.6,0-0.9-0.1c0-0.6,0.2-1.1,0.5-1.6c1.4-3.1,6.4-5.9,9.2-7.2
	C173.8,110.1,172.8,112.1,171.2,113.6L171.2,113.6z"/>
</svg>
